<svg width="20" height="20" viewBox="0 0 20 20" fill="none" xmlns="http://www.w3.org/2000/svg">
<path d="M3.54909 13.8279C2.61727 12.2571 2.29093 10.4001 2.63137 8.60571C2.97181 6.8113 3.9556 5.20288 5.398 4.08249C6.84041 2.9621 8.64221 2.4068 10.4651 2.52087C12.2879 2.63494 14.0064 3.41053 15.2979 4.702C16.5894 5.99347 17.365 7.71198 17.4791 9.53484C17.5931 11.3577 17.0379 13.1595 15.9175 14.6019C14.7971 16.0443 13.1887 17.0281 11.3943 17.3686C9.59985 17.709 7.74288 17.3827 6.17204 16.4509L6.17206 16.4508L3.5817 17.1909C3.47453 17.2215 3.36112 17.2229 3.25322 17.195C3.14533 17.167 3.04687 17.1107 2.96806 17.0319C2.88924 16.9531 2.83294 16.8546 2.80498 16.7467C2.77702 16.6388 2.77842 16.5254 2.80905 16.4182L3.54915 13.8279L3.54909 13.8279Z" stroke="#0864ED" stroke-width="1.5" stroke-linecap="round" stroke-linejoin="round"/>
<path d="M10 10.9375C10.5178 10.9375 10.9375 10.5178 10.9375 10C10.9375 9.48223 10.5178 9.0625 10 9.0625C9.48223 9.0625 9.0625 9.48223 9.0625 10C9.0625 10.5178 9.48223 10.9375 10 10.9375Z" fill="#0864ED"/>
<path d="M6.25 10.9375C6.76777 10.9375 7.1875 10.5178 7.1875 10C7.1875 9.48223 6.76777 9.0625 6.25 9.0625C5.73223 9.0625 5.3125 9.48223 5.3125 10C5.3125 10.5178 5.73223 10.9375 6.25 10.9375Z" fill="#0864ED"/>
<path d="M13.75 10.9375C14.2678 10.9375 14.6875 10.5178 14.6875 10C14.6875 9.48223 14.2678 9.0625 13.75 9.0625C13.2322 9.0625 12.8125 9.48223 12.8125 10C12.8125 10.5178 13.2322 10.9375 13.75 10.9375Z" fill="#0864ED"/>
</svg>
