<svg width="18" height="18" viewBox="0 0 18 18" fill="none" xmlns="http://www.w3.org/2000/svg">
<path d="M3.19419 12.4451C2.35555 11.0314 2.06185 9.36012 2.36824 7.74515C2.67463 6.13018 3.56004 4.68261 4.85821 3.67425C6.15637 2.6659 7.77799 2.16613 9.41856 2.2688C11.0591 2.37146 12.6058 3.06949 13.7681 4.23181C14.9305 5.39414 15.6285 6.9408 15.7312 8.58137C15.8338 10.2219 15.3341 11.8436 14.3257 13.1417C13.3174 14.4399 11.8698 15.3253 10.2548 15.6317C8.63987 15.9381 6.9686 15.6444 5.55484 14.8058L5.55486 14.8057L3.22354 15.4718C3.12708 15.4994 3.02501 15.5006 2.92791 15.4755C2.8308 15.4503 2.74219 15.3996 2.67125 15.3287C2.60032 15.2578 2.54965 15.1692 2.52449 15.072C2.49932 14.9749 2.50059 14.8729 2.52815 14.7764L3.19424 12.4451L3.19419 12.4451Z" stroke="#464D61" stroke-linecap="round" stroke-linejoin="round"/>
<path d="M9 9.84375C9.46599 9.84375 9.84375 9.46599 9.84375 9C9.84375 8.53401 9.46599 8.15625 9 8.15625C8.53401 8.15625 8.15625 8.53401 8.15625 9C8.15625 9.46599 8.53401 9.84375 9 9.84375Z" fill="#464D61"/>
<path d="M5.625 9.84375C6.09099 9.84375 6.46875 9.46599 6.46875 9C6.46875 8.53401 6.09099 8.15625 5.625 8.15625C5.15901 8.15625 4.78125 8.53401 4.78125 9C4.78125 9.46599 5.15901 9.84375 5.625 9.84375Z" fill="#464D61"/>
<path d="M12.375 9.84375C12.841 9.84375 13.2188 9.46599 13.2188 9C13.2188 8.53401 12.841 8.15625 12.375 8.15625C11.909 8.15625 11.5312 8.53401 11.5312 9C11.5312 9.46599 11.909 9.84375 12.375 9.84375Z" fill="#464D61"/>
</svg>
