<svg width="24" height="24" viewBox="0 0 24 24" fill="none" xmlns="http://www.w3.org/2000/svg">
<path d="M22.5673 11.4173L20.25 12.576L17.25 6.83079L19.5909 5.66036C19.7667 5.57242 19.9701 5.55707 20.1572 5.61761C20.3443 5.67814 20.5001 5.80973 20.5911 5.98403L22.8967 10.3994C22.9428 10.4877 22.9708 10.5842 22.9792 10.6835C22.9876 10.7827 22.9761 10.8827 22.9454 10.9774C22.9148 11.0722 22.8655 11.1599 22.8006 11.2354C22.7357 11.311 22.6564 11.3728 22.5673 11.4173V11.4173Z" stroke="#27C200" stroke-width="1.5" stroke-linecap="round" stroke-linejoin="round"/>
<path d="M3.75 12.4755L1.43272 11.3169C1.34364 11.2723 1.26432 11.2105 1.19939 11.135C1.13446 11.0594 1.08523 10.9717 1.05457 10.877C1.0239 10.7822 1.01242 10.6823 1.02079 10.583C1.02916 10.4838 1.05721 10.3872 1.10332 10.2989L3.4089 5.88357C3.49992 5.70927 3.65574 5.57768 3.84281 5.51714C4.02989 5.45661 4.23326 5.47196 4.40913 5.55989L6.75 6.73033L3.75 12.4755Z" stroke="#27C200" stroke-width="1.5" stroke-linecap="round" stroke-linejoin="round"/>
<path d="M20.25 12.5759L18.75 14.3308L15.3003 17.7805C15.2087 17.8721 15.095 17.9384 14.9701 17.9729C14.8453 18.0075 14.7137 18.0092 14.588 17.9778L9.15458 16.6194C9.05266 16.5939 8.95724 16.5473 8.87448 16.4826L3.75 12.4755" stroke="#27C200" stroke-width="1.5" stroke-linecap="round" stroke-linejoin="round"/>
<path d="M18.75 14.3308L14.625 11.3308L13.425 12.2308C12.9057 12.6203 12.2741 12.8308 11.625 12.8308C10.9759 12.8308 10.3443 12.6203 9.825 12.2308L9.31681 11.8497C9.23084 11.7852 9.15974 11.703 9.10831 11.6087C9.05687 11.5143 9.02631 11.41 9.01869 11.3028C9.01108 11.1956 9.02658 11.0881 9.06415 10.9874C9.10173 10.8867 9.1605 10.7953 9.23648 10.7193L12.9053 7.05048C12.975 6.98084 13.0577 6.92559 13.1486 6.8879C13.2396 6.85021 13.3372 6.83081 13.4357 6.83081H17.25" stroke="#27C200" stroke-width="1.5" stroke-linecap="round" stroke-linejoin="round"/>
<path d="M6.80385 6.73035L11.6151 5.3277C11.787 5.2776 11.9711 5.29062 12.1342 5.36442L15.375 6.83083" stroke="#27C200" stroke-width="1.5" stroke-linecap="round" stroke-linejoin="round"/>
<path d="M10.5 19.9558L7.67443 19.2494C7.55977 19.2207 7.4535 19.1654 7.3643 19.0878L5.25 17.25" stroke="#27C200" stroke-width="1.5" stroke-linecap="round" stroke-linejoin="round"/>
</svg>
